<?xml version="1.0" encoding="UTF-8"?>
<svg xmlns="http://www.w3.org/2000/svg" version="1.1" width="1226px" height="375px" style="shape-rendering:geometricPrecision; text-rendering:geometricPrecision; image-rendering:optimizeQuality; fill-rule:evenodd; clip-rule:evenodd" xmlns:xlink="http://www.w3.org/1999/xlink">
<g><path style="opacity:0.901" fill="#000000" d="M 166.5,80.5 C 170.555,80.1758 174.555,80.5091 178.5,81.5C 210.946,97.6463 243.28,113.98 275.5,130.5C 276.833,172.167 276.833,213.833 275.5,255.5C 272.883,257.425 270.216,259.258 267.5,261C 238.042,276.212 208.709,291.712 179.5,307.5C 177.333,307.833 175.167,308.167 173,308.5C 168.346,308.173 164.013,306.84 160,304.5C 131.486,289.987 102.82,275.654 74,261.5C 71.6593,259.831 69.326,258.164 67,256.5C 66.1667,215.829 66.3334,175.163 67.5,134.5C 68.7193,133.737 69.7193,132.737 70.5,131.5C 102.8,114.861 134.8,97.8611 166.5,80.5 Z M 169.5,100.5 C 172.807,100.462 175.974,101.128 179,102.5C 201.516,113.865 224.349,125.698 247.5,138C 222.349,150.493 197.516,163.66 173,177.5C 147.759,164.341 122.259,151.675 96.5,139.5C 120.823,126.297 145.157,113.297 169.5,100.5 Z M 258.5,152.5 C 259.492,159.648 259.825,166.981 259.5,174.5C 257.436,174.687 255.436,175.187 253.5,176C 253.833,176.333 254.167,176.667 254.5,177C 251.116,177.758 248.116,179.258 245.5,181.5C 243.856,179.355 242.023,177.355 240,175.5C 237.547,174.507 235.047,174.34 232.5,175C 224.635,179.432 216.635,183.599 208.5,187.5C 207.52,188.981 206.353,190.315 205,191.5C 204.827,195.541 204.327,199.541 203.5,203.5C 196.544,206.645 189.877,210.311 183.5,214.5C 182.188,207.276 182.188,200.109 183.5,193C 203.216,182.928 222.883,172.761 242.5,162.5C 247.898,159.142 253.231,155.808 258.5,152.5 Z M 84.5,155.5 C 110.665,167.581 136.665,180.248 162.5,193.5C 163.833,200.5 163.833,207.5 162.5,214.5C 137.333,202.343 112.333,190.01 87.5,177.5C 86.8333,176.833 86.1667,176.167 85.5,175.5C 84.5033,168.866 84.17,162.2 84.5,155.5 Z M 257.5,195.5 C 258.831,203.138 259.498,211.138 259.5,219.5C 259.333,227.5 259.167,235.5 259,243.5C 233.876,257.398 208.542,271.065 183,284.5C 182.5,268.17 182.333,251.837 182.5,235.5C 189.75,232.106 196.916,228.439 204,224.5C 204.171,229.533 204.671,234.533 205.5,239.5C 209.543,243.573 214.376,244.573 220,242.5C 226.624,238.438 233.457,234.771 240.5,231.5C 241.681,230.485 242.681,229.319 243.5,228C 244.457,219.542 244.79,211.042 244.5,202.5C 249.105,200.651 253.439,198.317 257.5,195.5 Z M 84.5,196.5 C 95.0092,201.921 105.676,207.088 116.5,212C 131.311,220.172 146.978,228.005 163.5,235.5C 163.833,251.847 163.499,268.18 162.5,284.5C 137.257,271.552 111.257,258.885 84.5,246.5C 84.5,229.833 84.5,213.167 84.5,196.5 Z M 225.5,200.5 C 225.829,206.537 225.496,212.537 224.5,218.5C 224.167,215.5 223.833,212.5 223.5,209.5C 223.517,206.087 224.184,203.087 225.5,200.5 Z"/></g>
<g><path style="opacity:0.966" fill="#01ff18" d="M 310.5,126.5 C 341.833,126.5 373.167,126.5 404.5,126.5C 404.5,130.833 404.5,135.167 404.5,139.5C 408.833,139.5 413.167,139.5 417.5,139.5C 417.5,153.167 417.5,166.833 417.5,180.5C 413.167,180.5 408.833,180.5 404.5,180.5C 404.5,184.5 404.5,188.5 404.5,192.5C 408.833,192.5 413.167,192.5 417.5,192.5C 417.5,210.5 417.5,228.5 417.5,246.5C 413.167,246.5 408.833,246.5 404.5,246.5C 404.5,250.833 404.5,255.167 404.5,259.5C 373.167,259.5 341.833,259.5 310.5,259.5C 310.5,215.167 310.5,170.833 310.5,126.5 Z M 337.5,140.5 C 355.167,140.5 372.833,140.5 390.5,140.5C 390.5,153.5 390.5,166.5 390.5,179.5C 372.833,179.5 355.167,179.5 337.5,179.5C 337.5,166.5 337.5,153.5 337.5,140.5 Z M 337.5,193.5 C 355.167,193.5 372.833,193.5 390.5,193.5C 390.5,210.833 390.5,228.167 390.5,245.5C 372.833,245.5 355.167,245.5 337.5,245.5C 337.5,228.167 337.5,210.833 337.5,193.5 Z"/></g>
<g><path style="opacity:0.978" fill="#01ff18" d="M 441.5,126.5 C 450.5,126.5 459.5,126.5 468.5,126.5C 468.5,170.833 468.5,215.167 468.5,259.5C 459.5,259.5 450.5,259.5 441.5,259.5C 441.5,215.167 441.5,170.833 441.5,126.5 Z"/></g>
<g><path style="opacity:0.952" fill="#01ff18" d="M 479.5,126.5 C 515.167,126.5 550.833,126.5 586.5,126.5C 586.5,131.167 586.5,135.833 586.5,140.5C 573.167,140.5 559.833,140.5 546.5,140.5C 546.5,180.167 546.5,219.833 546.5,259.5C 537.167,259.5 527.833,259.5 518.5,259.5C 518.5,219.833 518.5,180.167 518.5,140.5C 505.5,140.5 492.5,140.5 479.5,140.5C 479.5,135.833 479.5,131.167 479.5,126.5 Z"/></g>
<g><path style="opacity:0.952" fill="#01ff18" d="M 623.5,126.5 C 641.5,126.5 659.5,126.5 677.5,126.5C 677.5,130.833 677.5,135.167 677.5,139.5C 682.167,139.5 686.833,139.5 691.5,139.5C 691.5,148.5 691.5,157.5 691.5,166.5C 686.833,166.5 682.167,166.5 677.5,166.5C 677.5,162.167 677.5,157.833 677.5,153.5C 672.833,153.5 668.167,153.5 663.5,153.5C 663.5,149.167 663.5,144.833 663.5,140.5C 655.167,140.5 646.833,140.5 638.5,140.5C 638.5,144.833 638.5,149.167 638.5,153.5C 633.833,153.5 629.167,153.5 624.5,153.5C 624.5,179.833 624.5,206.167 624.5,232.5C 629.167,232.5 633.833,232.5 638.5,232.5C 638.5,236.833 638.5,241.167 638.5,245.5C 646.833,245.5 655.167,245.5 663.5,245.5C 663.5,241.167 663.5,236.833 663.5,232.5C 668.167,232.5 672.833,232.5 677.5,232.5C 677.5,228.167 677.5,223.833 677.5,219.5C 682.167,219.5 686.833,219.5 691.5,219.5C 691.5,228.5 691.5,237.5 691.5,246.5C 686.833,246.5 682.167,246.5 677.5,246.5C 677.5,250.833 677.5,255.167 677.5,259.5C 659.5,259.5 641.5,259.5 623.5,259.5C 623.5,255.167 623.5,250.833 623.5,246.5C 619.167,246.5 614.833,246.5 610.5,246.5C 610.5,242.167 610.5,237.833 610.5,233.5C 606.167,233.5 601.833,233.5 597.5,233.5C 597.5,206.5 597.5,179.5 597.5,152.5C 601.833,152.5 606.167,152.5 610.5,152.5C 610.5,148.167 610.5,143.833 610.5,139.5C 614.833,139.5 619.167,139.5 623.5,139.5C 623.5,135.167 623.5,130.833 623.5,126.5 Z"/></g>
<g><path style="opacity:0.975" fill="#01ff18" d="M 714.5,126.5 C 723.5,126.5 732.5,126.5 741.5,126.5C 741.5,144.167 741.5,161.833 741.5,179.5C 759.167,179.5 776.833,179.5 794.5,179.5C 794.5,161.833 794.5,144.167 794.5,126.5C 803.5,126.5 812.5,126.5 821.5,126.5C 821.5,170.833 821.5,215.167 821.5,259.5C 812.5,259.5 803.5,259.5 794.5,259.5C 794.5,237.5 794.5,215.5 794.5,193.5C 776.833,193.5 759.167,193.5 741.5,193.5C 741.5,215.5 741.5,237.5 741.5,259.5C 732.5,259.5 723.5,259.5 714.5,259.5C 714.5,215.167 714.5,170.833 714.5,126.5 Z"/></g>
<g><path style="opacity:0.963" fill="#01ff18" d="M 846.5,126.5 C 877.833,126.5 909.167,126.5 940.5,126.5C 940.5,131.167 940.5,135.833 940.5,140.5C 918.167,140.5 895.833,140.5 873.5,140.5C 873.5,153.5 873.5,166.5 873.5,179.5C 891.167,179.5 908.833,179.5 926.5,179.5C 926.5,184.167 926.5,188.833 926.5,193.5C 908.833,193.5 891.167,193.5 873.5,193.5C 873.5,210.833 873.5,228.167 873.5,245.5C 895.833,245.5 918.167,245.5 940.5,245.5C 940.5,250.167 940.5,254.833 940.5,259.5C 909.167,259.5 877.833,259.5 846.5,259.5C 846.5,215.167 846.5,170.833 846.5,126.5 Z"/></g>
<g><path style="opacity:0.951" fill="#01ff18" d="M 976.5,126.5 C 998.833,126.5 1021.17,126.5 1043.5,126.5C 1043.5,130.833 1043.5,135.167 1043.5,139.5C 1048.17,139.5 1052.83,139.5 1057.5,139.5C 1057.5,148.5 1057.5,157.5 1057.5,166.5C 1048.17,166.5 1038.83,166.5 1029.5,166.5C 1029.5,157.833 1029.5,149.167 1029.5,140.5C 1016.5,140.5 1003.5,140.5 990.5,140.5C 990.5,153.5 990.5,166.5 990.5,179.5C 999.5,179.5 1008.5,179.5 1017.5,179.5C 1017.5,183.833 1017.5,188.167 1017.5,192.5C 1026.17,192.5 1034.83,192.5 1043.5,192.5C 1043.5,196.833 1043.5,201.167 1043.5,205.5C 1048.17,205.5 1052.83,205.5 1057.5,205.5C 1057.5,219.167 1057.5,232.833 1057.5,246.5C 1052.83,246.5 1048.17,246.5 1043.5,246.5C 1043.5,250.833 1043.5,255.167 1043.5,259.5C 1021.17,259.5 998.833,259.5 976.5,259.5C 976.5,255.167 976.5,250.833 976.5,246.5C 972.167,246.5 967.833,246.5 963.5,246.5C 963.5,237.5 963.5,228.5 963.5,219.5C 972.5,219.5 981.5,219.5 990.5,219.5C 990.5,228.167 990.5,236.833 990.5,245.5C 1003.5,245.5 1016.5,245.5 1029.5,245.5C 1029.5,232.5 1029.5,219.5 1029.5,206.5C 1020.83,206.5 1012.17,206.5 1003.5,206.5C 1003.5,202.167 1003.5,197.833 1003.5,193.5C 994.5,193.5 985.5,193.5 976.5,193.5C 976.5,189.167 976.5,184.833 976.5,180.5C 972.167,180.5 967.833,180.5 963.5,180.5C 963.5,166.833 963.5,153.167 963.5,139.5C 967.833,139.5 972.167,139.5 976.5,139.5C 976.5,135.167 976.5,130.833 976.5,126.5 Z"/></g>
<g><path style="opacity:0.952" fill="#01ff18" d="M 1068.5,126.5 C 1104.17,126.5 1139.83,126.5 1175.5,126.5C 1175.5,131.167 1175.5,135.833 1175.5,140.5C 1162.17,140.5 1148.83,140.5 1135.5,140.5C 1135.5,180.167 1135.5,219.833 1135.5,259.5C 1126.17,259.5 1116.83,259.5 1107.5,259.5C 1107.5,219.833 1107.5,180.167 1107.5,140.5C 1094.5,140.5 1081.5,140.5 1068.5,140.5C 1068.5,135.833 1068.5,131.167 1068.5,126.5 Z"/></g>
</svg>
